# xmcd CD database file
#
# Track frame offsets:
#	150
#	26665
#	44477
#	114327
#	146960
#	182112
#	245817
#
# Disc length: 3757 seconds
#
# Revision: 5
# Processed by: cddbd v1.5.1PL0 Copyright (c) Steve Scherf et al.
# Submitted via: CDex 1.51
#
DISCID=670eab07
DTITLE=Buddy Rich - Tuff Dude
DYEAR=1986
DGENRE=Jazz
TTITLE0=Donna Lee
TTITLE1=Chameleon
TTITLE2=2nd Avenue Blue
TTITLE3=Jumpin' at the Woodside
TTITLE4=Sierra Lonely
TTITLE5=Nica's Dream
TTITLE6=Billie's Bounce
EXTD=YEAR: 1986
EXTT0=
EXTT1=
EXTT2=
EXTT3=
EXTT4=
EXTT5=
EXTT6=
PLAYORDER=
